<svg width="16" height="16" viewBox="0 0 16 16" fill="none" xmlns="http://www.w3.org/2000/svg">
<g clip-path="url(#clip0_1419_10423)">
<path d="M11.3333 5.33341V3.33341C11.3333 3.1566 11.2631 2.98703 11.138 2.86201C11.013 2.73699 10.8434 2.66675 10.6666 2.66675H3.99996C3.64634 2.66675 3.3072 2.80722 3.05715 3.05727C2.8071 3.30732 2.66663 3.64646 2.66663 4.00008M2.66663 4.00008C2.66663 4.3537 2.8071 4.69284 3.05715 4.94289C3.3072 5.19294 3.64634 5.33341 3.99996 5.33341H12C12.1768 5.33341 12.3463 5.40365 12.4714 5.52868C12.5964 5.6537 12.6666 5.82327 12.6666 6.00008V8.00008M2.66663 4.00008V12.0001C2.66663 12.3537 2.8071 12.6928 3.05715 12.9429C3.3072 13.1929 3.64634 13.3334 3.99996 13.3334H12C12.1768 13.3334 12.3463 13.2632 12.4714 13.1382C12.5964 13.0131 12.6666 12.8436 12.6666 12.6667V10.6667" stroke="#EBF0FF" stroke-width="1.5" stroke-linecap="round" stroke-linejoin="round"/>
<path d="M13.3334 8V10.6667H10.6667C10.3131 10.6667 9.97395 10.5262 9.7239 10.2761C9.47385 10.0261 9.33337 9.68696 9.33337 9.33333C9.33337 8.97971 9.47385 8.64057 9.7239 8.39052C9.97395 8.14048 10.3131 8 10.6667 8H13.3334Z" stroke="#EBF0FF" stroke-width="1.5" stroke-linecap="round" stroke-linejoin="round"/>
</g>
<defs>
<clipPath id="clip0_1419_10423">
<rect width="16" height="16" fill="white"/>
</clipPath>
</defs>
</svg>
